<?xml version="1.0" encoding="UTF-8" standalone="no"?>
<!DOCTYPE svg PUBLIC "-//W3C//DTD SVG 1.1//EN"
 "http://www.w3.org/Graphics/SVG/1.1/DTD/svg11.dtd">
<!-- Generated by graphviz version 2.42.3 (20191010.1750)
 -->
<!-- Title: snakemake_dag Pages: 1 -->
<svg width="1838pt" height="332pt"
 viewBox="0.00 0.00 1837.50 332.00" xmlns="http://www.w3.org/2000/svg" xmlns:xlink="http://www.w3.org/1999/xlink">
<g id="graph0" class="graph" transform="scale(1 1) rotate(0) translate(4 328)">
<title>snakemake_dag</title>
<polygon fill="white" stroke="transparent" points="-4,4 -4,-328 1833.5,-328 1833.5,4 -4,4"/>
<!-- 0 -->
<g id="node1" class="node">
<title>0</title>
<path fill="none" stroke="#afd856" stroke-width="2" d="M801,-36C801,-36 771,-36 771,-36 765,-36 759,-30 759,-24 759,-24 759,-12 759,-12 759,-6 765,0 771,0 771,0 801,0 801,0 807,0 813,-6 813,-12 813,-12 813,-24 813,-24 813,-30 807,-36 801,-36"/>
<text text-anchor="middle" x="786" y="-15.5" font-family="sans" font-size="10.00">all</text>
</g>
<!-- 1 -->
<g id="node2" class="node">
<title>1</title>
<path fill="none" stroke="#56d8a9" stroke-width="2" d="M348,-324C348,-324 252,-324 252,-324 246,-324 240,-318 240,-312 240,-312 240,-300 240,-300 240,-294 246,-288 252,-288 252,-288 348,-288 348,-288 354,-288 360,-294 360,-300 360,-300 360,-312 360,-312 360,-318 354,-324 348,-324"/>
<text text-anchor="middle" x="300" y="-309" font-family="sans" font-size="10.00">trimming</text>
<text text-anchor="middle" x="300" y="-298" font-family="sans" font-size="10.00">sample: SRR1039508</text>
</g>
<!-- 1&#45;&gt;0 -->
<g id="edge1" class="edge">
<title>1&#45;&gt;0</title>
<path fill="none" stroke="grey" stroke-width="2" d="M304.59,-287.86C318.05,-238.88 358.75,-100.09 395,-72 449.72,-29.61 661.67,-21.12 748.55,-19.42"/>
<polygon fill="grey" stroke="grey" stroke-width="2" points="748.8,-22.92 758.74,-19.24 748.68,-15.92 748.8,-22.92"/>
</g>
<!-- 5 -->
<g id="node6" class="node">
<title>5</title>
<path fill="none" stroke="#56c9d8" stroke-width="2" d="M290,-252C290,-252 248,-252 248,-252 242,-252 236,-246 236,-240 236,-240 236,-228 236,-228 236,-222 242,-216 248,-216 248,-216 290,-216 290,-216 296,-216 302,-222 302,-228 302,-228 302,-240 302,-240 302,-246 296,-252 290,-252"/>
<text text-anchor="middle" x="269" y="-231.5" font-family="sans" font-size="10.00">alignment</text>
</g>
<!-- 1&#45;&gt;5 -->
<g id="edge26" class="edge">
<title>1&#45;&gt;5</title>
<path fill="none" stroke="grey" stroke-width="2" d="M292.34,-287.7C288.81,-279.73 284.55,-270.1 280.64,-261.26"/>
<polygon fill="grey" stroke="grey" stroke-width="2" points="283.83,-259.83 276.58,-252.1 277.43,-262.67 283.83,-259.83"/>
</g>
<!-- 2 -->
<g id="node3" class="node">
<title>2</title>
<path fill="none" stroke="#56d8a9" stroke-width="2" d="M526,-324C526,-324 430,-324 430,-324 424,-324 418,-318 418,-312 418,-312 418,-300 418,-300 418,-294 424,-288 430,-288 430,-288 526,-288 526,-288 532,-288 538,-294 538,-300 538,-300 538,-312 538,-312 538,-318 532,-324 526,-324"/>
<text text-anchor="middle" x="478" y="-309" font-family="sans" font-size="10.00">trimming</text>
<text text-anchor="middle" x="478" y="-298" font-family="sans" font-size="10.00">sample: SRR1039509</text>
</g>
<!-- 2&#45;&gt;0 -->
<g id="edge2" class="edge">
<title>2&#45;&gt;0</title>
<path fill="none" stroke="grey" stroke-width="2" d="M464.3,-287.69C432.2,-244.99 359.16,-133.63 418,-72 462.84,-25.05 664.41,-19.16 748.73,-18.79"/>
<polygon fill="grey" stroke="grey" stroke-width="2" points="748.9,-22.29 758.89,-18.77 748.88,-15.29 748.9,-22.29"/>
</g>
<!-- 6 -->
<g id="node7" class="node">
<title>6</title>
<path fill="none" stroke="#56c9d8" stroke-width="2" d="M509,-252C509,-252 467,-252 467,-252 461,-252 455,-246 455,-240 455,-240 455,-228 455,-228 455,-222 461,-216 467,-216 467,-216 509,-216 509,-216 515,-216 521,-222 521,-228 521,-228 521,-240 521,-240 521,-246 515,-252 509,-252"/>
<text text-anchor="middle" x="488" y="-231.5" font-family="sans" font-size="10.00">alignment</text>
</g>
<!-- 2&#45;&gt;6 -->
<g id="edge27" class="edge">
<title>2&#45;&gt;6</title>
<path fill="none" stroke="grey" stroke-width="2" d="M480.48,-287.7C481.58,-279.98 482.9,-270.71 484.13,-262.11"/>
<polygon fill="grey" stroke="grey" stroke-width="2" points="487.61,-262.5 485.56,-252.1 480.68,-261.51 487.61,-262.5"/>
</g>
<!-- 3 -->
<g id="node4" class="node">
<title>3</title>
<path fill="none" stroke="#56d8a9" stroke-width="2" d="M1453,-324C1453,-324 1357,-324 1357,-324 1351,-324 1345,-318 1345,-312 1345,-312 1345,-300 1345,-300 1345,-294 1351,-288 1357,-288 1357,-288 1453,-288 1453,-288 1459,-288 1465,-294 1465,-300 1465,-300 1465,-312 1465,-312 1465,-318 1459,-324 1453,-324"/>
<text text-anchor="middle" x="1405" y="-309" font-family="sans" font-size="10.00">trimming</text>
<text text-anchor="middle" x="1405" y="-298" font-family="sans" font-size="10.00">sample: SRR1039512</text>
</g>
<!-- 3&#45;&gt;0 -->
<g id="edge3" class="edge">
<title>3&#45;&gt;0</title>
<path fill="none" stroke="grey" stroke-width="2" d="M1417.67,-287.83C1448.07,-244.44 1518.17,-129.81 1456,-72 1409.52,-28.77 957.96,-20.74 823.56,-19.3"/>
<polygon fill="grey" stroke="grey" stroke-width="2" points="823.38,-15.8 813.35,-19.2 823.31,-22.8 823.38,-15.8"/>
</g>
<!-- 7 -->
<g id="node8" class="node">
<title>7</title>
<path fill="none" stroke="#56c9d8" stroke-width="2" d="M1405,-252C1405,-252 1363,-252 1363,-252 1357,-252 1351,-246 1351,-240 1351,-240 1351,-228 1351,-228 1351,-222 1357,-216 1363,-216 1363,-216 1405,-216 1405,-216 1411,-216 1417,-222 1417,-228 1417,-228 1417,-240 1417,-240 1417,-246 1411,-252 1405,-252"/>
<text text-anchor="middle" x="1384" y="-231.5" font-family="sans" font-size="10.00">alignment</text>
</g>
<!-- 3&#45;&gt;7 -->
<g id="edge28" class="edge">
<title>3&#45;&gt;7</title>
<path fill="none" stroke="grey" stroke-width="2" d="M1399.81,-287.7C1397.47,-279.9 1394.66,-270.51 1392.05,-261.83"/>
<polygon fill="grey" stroke="grey" stroke-width="2" points="1395.36,-260.68 1389.14,-252.1 1388.66,-262.69 1395.36,-260.68"/>
</g>
<!-- 4 -->
<g id="node5" class="node">
<title>4</title>
<path fill="none" stroke="#56d8a9" stroke-width="2" d="M1631,-324C1631,-324 1535,-324 1535,-324 1529,-324 1523,-318 1523,-312 1523,-312 1523,-300 1523,-300 1523,-294 1529,-288 1535,-288 1535,-288 1631,-288 1631,-288 1637,-288 1643,-294 1643,-300 1643,-300 1643,-312 1643,-312 1643,-318 1637,-324 1631,-324"/>
<text text-anchor="middle" x="1583" y="-309" font-family="sans" font-size="10.00">trimming</text>
<text text-anchor="middle" x="1583" y="-298" font-family="sans" font-size="10.00">sample: SRR1039513</text>
</g>
<!-- 4&#45;&gt;0 -->
<g id="edge4" class="edge">
<title>4&#45;&gt;0</title>
<path fill="none" stroke="grey" stroke-width="2" d="M1575.74,-287.78C1553.23,-234.44 1485.8,-75.4 1481,-72 1427.2,-33.82 960.65,-22.23 823.67,-19.63"/>
<polygon fill="grey" stroke="grey" stroke-width="2" points="823.34,-16.12 813.28,-19.44 823.21,-23.12 823.34,-16.12"/>
</g>
<!-- 8 -->
<g id="node9" class="node">
<title>8</title>
<path fill="none" stroke="#56c9d8" stroke-width="2" d="M1624,-252C1624,-252 1582,-252 1582,-252 1576,-252 1570,-246 1570,-240 1570,-240 1570,-228 1570,-228 1570,-222 1576,-216 1582,-216 1582,-216 1624,-216 1624,-216 1630,-216 1636,-222 1636,-228 1636,-228 1636,-240 1636,-240 1636,-246 1630,-252 1624,-252"/>
<text text-anchor="middle" x="1603" y="-231.5" font-family="sans" font-size="10.00">alignment</text>
</g>
<!-- 4&#45;&gt;8 -->
<g id="edge29" class="edge">
<title>4&#45;&gt;8</title>
<path fill="none" stroke="grey" stroke-width="2" d="M1587.95,-287.7C1590.18,-279.9 1592.86,-270.51 1595.34,-261.83"/>
<polygon fill="grey" stroke="grey" stroke-width="2" points="1598.74,-262.68 1598.12,-252.1 1592.01,-260.76 1598.74,-262.68"/>
</g>
<!-- 5&#45;&gt;0 -->
<g id="edge5" class="edge">
<title>5&#45;&gt;0</title>
<path fill="none" stroke="grey" stroke-width="2" d="M268.34,-215.9C268.05,-182.46 272.67,-108.46 316,-72 348.96,-44.27 643.55,-26.4 748.82,-20.85"/>
<polygon fill="grey" stroke="grey" stroke-width="2" points="749.17,-24.33 758.98,-20.32 748.81,-17.34 749.17,-24.33"/>
</g>
<!-- 9 -->
<g id="node10" class="node">
<title>9</title>
<path fill="none" stroke="#5692d8" stroke-width="2" d="M252,-108C252,-108 168,-108 168,-108 162,-108 156,-102 156,-96 156,-96 156,-84 156,-84 156,-78 162,-72 168,-72 168,-72 252,-72 252,-72 258,-72 264,-78 264,-84 264,-84 264,-96 264,-96 264,-102 258,-108 252,-108"/>
<text text-anchor="middle" x="210" y="-87.5" font-family="sans" font-size="10.00">alignment_metrics</text>
</g>
<!-- 5&#45;&gt;9 -->
<g id="edge30" class="edge">
<title>5&#45;&gt;9</title>
<path fill="none" stroke="grey" stroke-width="2" d="M261.89,-215.87C251.74,-191.46 233.03,-146.43 221.07,-117.64"/>
<polygon fill="grey" stroke="grey" stroke-width="2" points="224.22,-116.08 217.15,-108.19 217.75,-118.77 224.22,-116.08"/>
</g>
<!-- 17 -->
<g id="node18" class="node">
<title>17</title>
<path fill="none" stroke="#56d873" stroke-width="2" d="M112.5,-180C112.5,-180 41.5,-180 41.5,-180 35.5,-180 29.5,-174 29.5,-168 29.5,-168 29.5,-156 29.5,-156 29.5,-150 35.5,-144 41.5,-144 41.5,-144 112.5,-144 112.5,-144 118.5,-144 124.5,-150 124.5,-156 124.5,-156 124.5,-168 124.5,-168 124.5,-174 118.5,-180 112.5,-180"/>
<text text-anchor="middle" x="77" y="-159.5" font-family="sans" font-size="10.00">picard_markdup</text>
</g>
<!-- 5&#45;&gt;17 -->
<g id="edge34" class="edge">
<title>5&#45;&gt;17</title>
<path fill="none" stroke="grey" stroke-width="2" d="M236,-220.97C207.89,-210.72 166.89,-195.77 133.57,-183.62"/>
<polygon fill="grey" stroke="grey" stroke-width="2" points="134.54,-180.25 123.94,-180.11 132.14,-186.83 134.54,-180.25"/>
</g>
<!-- 25 -->
<g id="node26" class="node">
<title>25</title>
<path fill="none" stroke="#d88d56" stroke-width="2" d="M746,-180C746,-180 686,-180 686,-180 680,-180 674,-174 674,-168 674,-168 674,-156 674,-156 674,-150 680,-144 686,-144 686,-144 746,-144 746,-144 752,-144 758,-150 758,-156 758,-156 758,-168 758,-168 758,-174 752,-180 746,-180"/>
<text text-anchor="middle" x="716" y="-159.5" font-family="sans" font-size="10.00">featurecounts</text>
</g>
<!-- 5&#45;&gt;25 -->
<g id="edge42" class="edge">
<title>5&#45;&gt;25</title>
<path fill="none" stroke="grey" stroke-width="2" d="M302.16,-229.34C384.2,-220.16 595.04,-195.76 664,-180 664.11,-179.98 664.21,-179.95 664.31,-179.93"/>
<polygon fill="grey" stroke="grey" stroke-width="2" points="665.08,-183.35 673.9,-177.48 663.35,-176.56 665.08,-183.35"/>
</g>
<!-- 6&#45;&gt;0 -->
<g id="edge6" class="edge">
<title>6&#45;&gt;0</title>
<path fill="none" stroke="grey" stroke-width="2" d="M457.7,-215.8C445.13,-206.9 431.88,-194.77 425,-180 404.12,-135.15 413.68,-103.29 452,-72 496.91,-35.34 671.26,-23.7 748.64,-20.3"/>
<polygon fill="grey" stroke="grey" stroke-width="2" points="749.05,-23.78 758.9,-19.87 748.76,-16.79 749.05,-23.78"/>
</g>
<!-- 10 -->
<g id="node11" class="node">
<title>10</title>
<path fill="none" stroke="#5692d8" stroke-width="2" d="M530,-180C530,-180 446,-180 446,-180 440,-180 434,-174 434,-168 434,-168 434,-156 434,-156 434,-150 440,-144 446,-144 446,-144 530,-144 530,-144 536,-144 542,-150 542,-156 542,-156 542,-168 542,-168 542,-174 536,-180 530,-180"/>
<text text-anchor="middle" x="488" y="-159.5" font-family="sans" font-size="10.00">alignment_metrics</text>
</g>
<!-- 6&#45;&gt;10 -->
<g id="edge31" class="edge">
<title>6&#45;&gt;10</title>
<path fill="none" stroke="grey" stroke-width="2" d="M488,-215.7C488,-207.98 488,-198.71 488,-190.11"/>
<polygon fill="grey" stroke="grey" stroke-width="2" points="491.5,-190.1 488,-180.1 484.5,-190.1 491.5,-190.1"/>
</g>
<!-- 18 -->
<g id="node19" class="node">
<title>18</title>
<path fill="none" stroke="#56d873" stroke-width="2" d="M643.5,-180C643.5,-180 572.5,-180 572.5,-180 566.5,-180 560.5,-174 560.5,-168 560.5,-168 560.5,-156 560.5,-156 560.5,-150 566.5,-144 572.5,-144 572.5,-144 643.5,-144 643.5,-144 649.5,-144 655.5,-150 655.5,-156 655.5,-156 655.5,-168 655.5,-168 655.5,-174 649.5,-180 643.5,-180"/>
<text text-anchor="middle" x="608" y="-159.5" font-family="sans" font-size="10.00">picard_markdup</text>
</g>
<!-- 6&#45;&gt;18 -->
<g id="edge35" class="edge">
<title>6&#45;&gt;18</title>
<path fill="none" stroke="grey" stroke-width="2" d="M517.36,-215.88C533.05,-206.72 552.56,-195.34 569.46,-185.48"/>
<polygon fill="grey" stroke="grey" stroke-width="2" points="571.66,-188.25 578.54,-180.19 568.14,-182.21 571.66,-188.25"/>
</g>
<!-- 6&#45;&gt;25 -->
<g id="edge43" class="edge">
<title>6&#45;&gt;25</title>
<path fill="none" stroke="grey" stroke-width="2" d="M521.16,-223.27C556.6,-212.81 614.38,-195.58 664,-180 664.1,-179.97 664.2,-179.94 664.3,-179.91"/>
<polygon fill="grey" stroke="grey" stroke-width="2" points="665.27,-183.27 673.75,-176.91 663.16,-176.6 665.27,-183.27"/>
</g>
<!-- 7&#45;&gt;0 -->
<g id="edge7" class="edge">
<title>7&#45;&gt;0</title>
<path fill="none" stroke="grey" stroke-width="2" d="M1414.3,-215.8C1426.88,-206.9 1440.13,-194.77 1447,-180 1467.61,-135.74 1464.62,-103.12 1427,-72 1380.4,-33.45 953.56,-22.19 823.46,-19.64"/>
<polygon fill="grey" stroke="grey" stroke-width="2" points="823.28,-16.13 813.21,-19.44 823.14,-23.13 823.28,-16.13"/>
</g>
<!-- 11 -->
<g id="node12" class="node">
<title>11</title>
<path fill="none" stroke="#5692d8" stroke-width="2" d="M1426,-180C1426,-180 1342,-180 1342,-180 1336,-180 1330,-174 1330,-168 1330,-168 1330,-156 1330,-156 1330,-150 1336,-144 1342,-144 1342,-144 1426,-144 1426,-144 1432,-144 1438,-150 1438,-156 1438,-156 1438,-168 1438,-168 1438,-174 1432,-180 1426,-180"/>
<text text-anchor="middle" x="1384" y="-159.5" font-family="sans" font-size="10.00">alignment_metrics</text>
</g>
<!-- 7&#45;&gt;11 -->
<g id="edge32" class="edge">
<title>7&#45;&gt;11</title>
<path fill="none" stroke="grey" stroke-width="2" d="M1384,-215.7C1384,-207.98 1384,-198.71 1384,-190.11"/>
<polygon fill="grey" stroke="grey" stroke-width="2" points="1387.5,-190.1 1384,-180.1 1380.5,-190.1 1387.5,-190.1"/>
</g>
<!-- 19 -->
<g id="node20" class="node">
<title>19</title>
<path fill="none" stroke="#56d873" stroke-width="2" d="M1299.5,-180C1299.5,-180 1228.5,-180 1228.5,-180 1222.5,-180 1216.5,-174 1216.5,-168 1216.5,-168 1216.5,-156 1216.5,-156 1216.5,-150 1222.5,-144 1228.5,-144 1228.5,-144 1299.5,-144 1299.5,-144 1305.5,-144 1311.5,-150 1311.5,-156 1311.5,-156 1311.5,-168 1311.5,-168 1311.5,-174 1305.5,-180 1299.5,-180"/>
<text text-anchor="middle" x="1264" y="-159.5" font-family="sans" font-size="10.00">picard_markdup</text>
</g>
<!-- 7&#45;&gt;19 -->
<g id="edge36" class="edge">
<title>7&#45;&gt;19</title>
<path fill="none" stroke="grey" stroke-width="2" d="M1354.65,-215.88C1338.96,-206.72 1319.45,-195.34 1302.55,-185.48"/>
<polygon fill="grey" stroke="grey" stroke-width="2" points="1303.87,-182.21 1293.47,-180.19 1300.35,-188.25 1303.87,-182.21"/>
</g>
<!-- 7&#45;&gt;25 -->
<g id="edge44" class="edge">
<title>7&#45;&gt;25</title>
<path fill="none" stroke="grey" stroke-width="2" d="M1350.88,-229.53C1242.84,-218.21 900.11,-182.29 768.33,-168.48"/>
<polygon fill="grey" stroke="grey" stroke-width="2" points="768.41,-164.97 758.1,-167.41 767.68,-171.93 768.41,-164.97"/>
</g>
<!-- 8&#45;&gt;0 -->
<g id="edge8" class="edge">
<title>8&#45;&gt;0</title>
<path fill="none" stroke="grey" stroke-width="2" d="M1600.5,-215.88C1594.61,-178.25 1578.69,-90.26 1556,-72 1498.53,-25.74 970.05,-19.85 823.52,-19.11"/>
<polygon fill="grey" stroke="grey" stroke-width="2" points="823.27,-15.6 813.25,-19.06 823.23,-22.6 823.27,-15.6"/>
</g>
<!-- 12 -->
<g id="node13" class="node">
<title>12</title>
<path fill="none" stroke="#5692d8" stroke-width="2" d="M1704,-180C1704,-180 1620,-180 1620,-180 1614,-180 1608,-174 1608,-168 1608,-168 1608,-156 1608,-156 1608,-150 1614,-144 1620,-144 1620,-144 1704,-144 1704,-144 1710,-144 1716,-150 1716,-156 1716,-156 1716,-168 1716,-168 1716,-174 1710,-180 1704,-180"/>
<text text-anchor="middle" x="1662" y="-159.5" font-family="sans" font-size="10.00">alignment_metrics</text>
</g>
<!-- 8&#45;&gt;12 -->
<g id="edge33" class="edge">
<title>8&#45;&gt;12</title>
<path fill="none" stroke="grey" stroke-width="2" d="M1617.59,-215.7C1624.66,-207.3 1633.29,-197.07 1641.05,-187.86"/>
<polygon fill="grey" stroke="grey" stroke-width="2" points="1643.82,-190.01 1647.59,-180.1 1638.47,-185.49 1643.82,-190.01"/>
</g>
<!-- 20 -->
<g id="node21" class="node">
<title>20</title>
<path fill="none" stroke="#56d873" stroke-width="2" d="M1817.5,-180C1817.5,-180 1746.5,-180 1746.5,-180 1740.5,-180 1734.5,-174 1734.5,-168 1734.5,-168 1734.5,-156 1734.5,-156 1734.5,-150 1740.5,-144 1746.5,-144 1746.5,-144 1817.5,-144 1817.5,-144 1823.5,-144 1829.5,-150 1829.5,-156 1829.5,-156 1829.5,-168 1829.5,-168 1829.5,-174 1823.5,-180 1817.5,-180"/>
<text text-anchor="middle" x="1782" y="-159.5" font-family="sans" font-size="10.00">picard_markdup</text>
</g>
<!-- 8&#45;&gt;20 -->
<g id="edge37" class="edge">
<title>8&#45;&gt;20</title>
<path fill="none" stroke="grey" stroke-width="2" d="M1636.25,-220C1662.25,-209.83 1698.91,-195.5 1728.95,-183.75"/>
<polygon fill="grey" stroke="grey" stroke-width="2" points="1730.41,-186.93 1738.45,-180.03 1727.86,-180.41 1730.41,-186.93"/>
</g>
<!-- 8&#45;&gt;25 -->
<g id="edge45" class="edge">
<title>8&#45;&gt;25</title>
<path fill="none" stroke="grey" stroke-width="2" d="M1569.75,-229.59C1534.19,-226 1476.14,-220.28 1426,-216 1180.03,-195.01 885.71,-174.51 768.19,-166.51"/>
<polygon fill="grey" stroke="grey" stroke-width="2" points="768.26,-163.01 758.04,-165.82 767.78,-169.99 768.26,-163.01"/>
</g>
<!-- 9&#45;&gt;0 -->
<g id="edge9" class="edge">
<title>9&#45;&gt;0</title>
<path fill="none" stroke="grey" stroke-width="2" d="M264.05,-74.76C268.75,-73.74 273.45,-72.8 278,-72 452.61,-41.22 664.36,-26.19 748.72,-21.08"/>
<polygon fill="grey" stroke="grey" stroke-width="2" points="749.06,-24.57 758.83,-20.48 748.64,-17.58 749.06,-24.57"/>
</g>
<!-- 10&#45;&gt;0 -->
<g id="edge10" class="edge">
<title>10&#45;&gt;0</title>
<path fill="none" stroke="grey" stroke-width="2" d="M474.99,-143.97C461.77,-124.46 445.55,-92.55 463,-72 499.32,-29.24 671.79,-20.91 748.76,-19.34"/>
<polygon fill="grey" stroke="grey" stroke-width="2" points="749.03,-22.83 758.96,-19.16 748.9,-15.84 749.03,-22.83"/>
</g>
<!-- 11&#45;&gt;0 -->
<g id="edge11" class="edge">
<title>11&#45;&gt;0</title>
<path fill="none" stroke="grey" stroke-width="2" d="M1397.01,-143.7C1410.17,-123.94 1426.19,-91.8 1408,-72 1368.34,-28.81 951.22,-20.77 823.17,-19.31"/>
<polygon fill="grey" stroke="grey" stroke-width="2" points="823.11,-15.81 813.08,-19.2 823.04,-22.81 823.11,-15.81"/>
</g>
<!-- 12&#45;&gt;0 -->
<g id="edge12" class="edge">
<title>12&#45;&gt;0</title>
<path fill="none" stroke="grey" stroke-width="2" d="M1654.37,-143.64C1644.05,-122.54 1623.48,-87.8 1594,-72 1525.56,-35.32 973.38,-22.48 823.45,-19.65"/>
<polygon fill="grey" stroke="grey" stroke-width="2" points="823.43,-16.15 813.37,-19.46 823.3,-23.14 823.43,-16.15"/>
</g>
<!-- 13 -->
<g id="node14" class="node">
<title>13</title>
<path fill="none" stroke="#d8cb56" stroke-width="2" d="M834,-108C834,-108 738,-108 738,-108 732,-108 726,-102 726,-96 726,-96 726,-84 726,-84 726,-78 732,-72 738,-72 738,-72 834,-72 834,-72 840,-72 846,-78 846,-84 846,-84 846,-96 846,-96 846,-102 840,-108 834,-108"/>
<text text-anchor="middle" x="786" y="-93" font-family="sans" font-size="10.00">fastqc</text>
<text text-anchor="middle" x="786" y="-82" font-family="sans" font-size="10.00">sample: SRR1039508</text>
</g>
<!-- 13&#45;&gt;0 -->
<g id="edge13" class="edge">
<title>13&#45;&gt;0</title>
<path fill="none" stroke="grey" stroke-width="2" d="M786,-71.7C786,-63.98 786,-54.71 786,-46.11"/>
<polygon fill="grey" stroke="grey" stroke-width="2" points="789.5,-46.1 786,-36.1 782.5,-46.1 789.5,-46.1"/>
</g>
<!-- 14 -->
<g id="node15" class="node">
<title>14</title>
<path fill="none" stroke="#d8cb56" stroke-width="2" d="M972,-108C972,-108 876,-108 876,-108 870,-108 864,-102 864,-96 864,-96 864,-84 864,-84 864,-78 870,-72 876,-72 876,-72 972,-72 972,-72 978,-72 984,-78 984,-84 984,-84 984,-96 984,-96 984,-102 978,-108 972,-108"/>
<text text-anchor="middle" x="924" y="-93" font-family="sans" font-size="10.00">fastqc</text>
<text text-anchor="middle" x="924" y="-82" font-family="sans" font-size="10.00">sample: SRR1039509</text>
</g>
<!-- 14&#45;&gt;0 -->
<g id="edge14" class="edge">
<title>14&#45;&gt;0</title>
<path fill="none" stroke="grey" stroke-width="2" d="M890.25,-71.88C869.67,-61.44 843.38,-48.1 822.35,-37.44"/>
<polygon fill="grey" stroke="grey" stroke-width="2" points="823.9,-34.3 813.4,-32.9 820.73,-40.54 823.9,-34.3"/>
</g>
<!-- 15 -->
<g id="node16" class="node">
<title>15</title>
<path fill="none" stroke="#d8cb56" stroke-width="2" d="M1110,-108C1110,-108 1014,-108 1014,-108 1008,-108 1002,-102 1002,-96 1002,-96 1002,-84 1002,-84 1002,-78 1008,-72 1014,-72 1014,-72 1110,-72 1110,-72 1116,-72 1122,-78 1122,-84 1122,-84 1122,-96 1122,-96 1122,-102 1116,-108 1110,-108"/>
<text text-anchor="middle" x="1062" y="-93" font-family="sans" font-size="10.00">fastqc</text>
<text text-anchor="middle" x="1062" y="-82" font-family="sans" font-size="10.00">sample: SRR1039512</text>
</g>
<!-- 15&#45;&gt;0 -->
<g id="edge15" class="edge">
<title>15&#45;&gt;0</title>
<path fill="none" stroke="grey" stroke-width="2" d="M1001.78,-73.72C947.22,-59.89 868.57,-39.94 822.84,-28.34"/>
<polygon fill="grey" stroke="grey" stroke-width="2" points="823.6,-24.92 813.05,-25.86 821.88,-31.71 823.6,-24.92"/>
</g>
<!-- 16 -->
<g id="node17" class="node">
<title>16</title>
<path fill="none" stroke="#d8cb56" stroke-width="2" d="M1248,-108C1248,-108 1152,-108 1152,-108 1146,-108 1140,-102 1140,-96 1140,-96 1140,-84 1140,-84 1140,-78 1146,-72 1152,-72 1152,-72 1248,-72 1248,-72 1254,-72 1260,-78 1260,-84 1260,-84 1260,-96 1260,-96 1260,-102 1254,-108 1248,-108"/>
<text text-anchor="middle" x="1200" y="-93" font-family="sans" font-size="10.00">fastqc</text>
<text text-anchor="middle" x="1200" y="-82" font-family="sans" font-size="10.00">sample: SRR1039513</text>
</g>
<!-- 16&#45;&gt;0 -->
<g id="edge16" class="edge">
<title>16&#45;&gt;0</title>
<path fill="none" stroke="grey" stroke-width="2" d="M1139.86,-73.85C1136.87,-73.2 1133.91,-72.58 1131,-72 1019.83,-49.81 886.89,-31.75 823.38,-23.63"/>
<polygon fill="grey" stroke="grey" stroke-width="2" points="823.79,-20.16 813.43,-22.37 822.91,-27.1 823.79,-20.16"/>
</g>
<!-- 17&#45;&gt;0 -->
<g id="edge17" class="edge">
<title>17&#45;&gt;0</title>
<path fill="none" stroke="grey" stroke-width="2" d="M42.32,-143.83C28.7,-135.13 14.54,-123.15 7,-108 -0.12,-93.67 -3.92,-83.69 7,-72 58.01,-17.4 599,-17.54 748.13,-18.62"/>
<polygon fill="grey" stroke="grey" stroke-width="2" points="748.54,-22.13 758.57,-18.71 748.6,-15.13 748.54,-22.13"/>
</g>
<!-- 21 -->
<g id="node22" class="node">
<title>21</title>
<path fill="none" stroke="#70d856" stroke-width="2" d="M125.5,-108C125.5,-108 28.5,-108 28.5,-108 22.5,-108 16.5,-102 16.5,-96 16.5,-96 16.5,-84 16.5,-84 16.5,-78 22.5,-72 28.5,-72 28.5,-72 125.5,-72 125.5,-72 131.5,-72 137.5,-78 137.5,-84 137.5,-84 137.5,-96 137.5,-96 137.5,-102 131.5,-108 125.5,-108"/>
<text text-anchor="middle" x="77" y="-87.5" font-family="sans" font-size="10.00">picard_collectmetrics</text>
</g>
<!-- 17&#45;&gt;21 -->
<g id="edge38" class="edge">
<title>17&#45;&gt;21</title>
<path fill="none" stroke="grey" stroke-width="2" d="M77,-143.7C77,-135.98 77,-126.71 77,-118.11"/>
<polygon fill="grey" stroke="grey" stroke-width="2" points="80.5,-118.1 77,-108.1 73.5,-118.1 80.5,-118.1"/>
</g>
<!-- 18&#45;&gt;0 -->
<g id="edge18" class="edge">
<title>18&#45;&gt;0</title>
<path fill="none" stroke="grey" stroke-width="2" d="M617.4,-143.97C628.86,-124.47 649.85,-92.57 675,-72 697.14,-53.9 726.48,-40.24 749.43,-31.32"/>
<polygon fill="grey" stroke="grey" stroke-width="2" points="750.71,-34.58 758.84,-27.79 748.25,-28.03 750.71,-34.58"/>
</g>
<!-- 22 -->
<g id="node23" class="node">
<title>22</title>
<path fill="none" stroke="#70d856" stroke-width="2" d="M581.5,-108C581.5,-108 484.5,-108 484.5,-108 478.5,-108 472.5,-102 472.5,-96 472.5,-96 472.5,-84 472.5,-84 472.5,-78 478.5,-72 484.5,-72 484.5,-72 581.5,-72 581.5,-72 587.5,-72 593.5,-78 593.5,-84 593.5,-84 593.5,-96 593.5,-96 593.5,-102 587.5,-108 581.5,-108"/>
<text text-anchor="middle" x="533" y="-87.5" font-family="sans" font-size="10.00">picard_collectmetrics</text>
</g>
<!-- 18&#45;&gt;22 -->
<g id="edge39" class="edge">
<title>18&#45;&gt;22</title>
<path fill="none" stroke="grey" stroke-width="2" d="M589.47,-143.7C580.2,-135.05 568.84,-124.45 558.75,-115.03"/>
<polygon fill="grey" stroke="grey" stroke-width="2" points="561.03,-112.37 551.33,-108.1 556.25,-117.49 561.03,-112.37"/>
</g>
<!-- 19&#45;&gt;0 -->
<g id="edge19" class="edge">
<title>19&#45;&gt;0</title>
<path fill="none" stroke="grey" stroke-width="2" d="M1216.13,-159.96C1088.98,-156.71 750.27,-144.65 717,-108 706.25,-96.15 709.93,-86.35 717,-72 724.11,-57.58 737.24,-45.99 750.15,-37.37"/>
<polygon fill="grey" stroke="grey" stroke-width="2" points="752.33,-40.13 758.97,-31.87 748.63,-34.18 752.33,-40.13"/>
</g>
<!-- 23 -->
<g id="node24" class="node">
<title>23</title>
<path fill="none" stroke="#70d856" stroke-width="2" d="M1387.5,-108C1387.5,-108 1290.5,-108 1290.5,-108 1284.5,-108 1278.5,-102 1278.5,-96 1278.5,-96 1278.5,-84 1278.5,-84 1278.5,-78 1284.5,-72 1290.5,-72 1290.5,-72 1387.5,-72 1387.5,-72 1393.5,-72 1399.5,-78 1399.5,-84 1399.5,-84 1399.5,-96 1399.5,-96 1399.5,-102 1393.5,-108 1387.5,-108"/>
<text text-anchor="middle" x="1339" y="-87.5" font-family="sans" font-size="10.00">picard_collectmetrics</text>
</g>
<!-- 19&#45;&gt;23 -->
<g id="edge40" class="edge">
<title>19&#45;&gt;23</title>
<path fill="none" stroke="grey" stroke-width="2" d="M1282.54,-143.7C1291.81,-135.05 1303.17,-124.45 1313.26,-115.03"/>
<polygon fill="grey" stroke="grey" stroke-width="2" points="1315.76,-117.49 1320.68,-108.1 1310.98,-112.37 1315.76,-117.49"/>
</g>
<!-- 20&#45;&gt;0 -->
<g id="edge20" class="edge">
<title>20&#45;&gt;0</title>
<path fill="none" stroke="grey" stroke-width="2" d="M1787,-143.91C1791.73,-123.73 1795.63,-90.58 1777,-72 1742.61,-37.7 999.76,-22.7 823.35,-19.62"/>
<polygon fill="grey" stroke="grey" stroke-width="2" points="823.31,-16.12 813.25,-19.44 823.19,-23.11 823.31,-16.12"/>
</g>
<!-- 24 -->
<g id="node25" class="node">
<title>24</title>
<path fill="none" stroke="#70d856" stroke-width="2" d="M1755.5,-108C1755.5,-108 1658.5,-108 1658.5,-108 1652.5,-108 1646.5,-102 1646.5,-96 1646.5,-96 1646.5,-84 1646.5,-84 1646.5,-78 1652.5,-72 1658.5,-72 1658.5,-72 1755.5,-72 1755.5,-72 1761.5,-72 1767.5,-78 1767.5,-84 1767.5,-84 1767.5,-96 1767.5,-96 1767.5,-102 1761.5,-108 1755.5,-108"/>
<text text-anchor="middle" x="1707" y="-87.5" font-family="sans" font-size="10.00">picard_collectmetrics</text>
</g>
<!-- 20&#45;&gt;24 -->
<g id="edge41" class="edge">
<title>20&#45;&gt;24</title>
<path fill="none" stroke="grey" stroke-width="2" d="M1763.47,-143.7C1754.2,-135.05 1742.84,-124.45 1732.75,-115.03"/>
<polygon fill="grey" stroke="grey" stroke-width="2" points="1735.03,-112.37 1725.33,-108.1 1730.25,-117.49 1735.03,-112.37"/>
</g>
<!-- 21&#45;&gt;0 -->
<g id="edge21" class="edge">
<title>21&#45;&gt;0</title>
<path fill="none" stroke="grey" stroke-width="2" d="M137.59,-73.68C140.77,-73.06 143.92,-72.5 147,-72 373.63,-35.31 649.83,-23.34 748.64,-20.07"/>
<polygon fill="grey" stroke="grey" stroke-width="2" points="748.85,-23.57 758.73,-19.75 748.62,-16.57 748.85,-23.57"/>
</g>
<!-- 22&#45;&gt;0 -->
<g id="edge22" class="edge">
<title>22&#45;&gt;0</title>
<path fill="none" stroke="grey" stroke-width="2" d="M593.6,-72.23C641.99,-58.85 708.21,-40.52 748.99,-29.24"/>
<polygon fill="grey" stroke="grey" stroke-width="2" points="750.08,-32.57 758.79,-26.53 748.22,-25.82 750.08,-32.57"/>
</g>
<!-- 23&#45;&gt;0 -->
<g id="edge23" class="edge">
<title>23&#45;&gt;0</title>
<path fill="none" stroke="grey" stroke-width="2" d="M1278.4,-73.78C1275.23,-73.14 1272.08,-72.54 1269,-72 1104.21,-43.07 904.83,-27.15 823.39,-21.45"/>
<polygon fill="grey" stroke="grey" stroke-width="2" points="823.36,-17.94 813.15,-20.75 822.88,-24.93 823.36,-17.94"/>
</g>
<!-- 24&#45;&gt;0 -->
<g id="edge24" class="edge">
<title>24&#45;&gt;0</title>
<path fill="none" stroke="grey" stroke-width="2" d="M1646.17,-74.35C1641.39,-73.47 1636.63,-72.66 1632,-72 1321.63,-27.4 941.86,-20.33 823.21,-19.21"/>
<polygon fill="grey" stroke="grey" stroke-width="2" points="823.22,-15.71 813.19,-19.12 823.16,-22.71 823.22,-15.71"/>
</g>
<!-- 25&#45;&gt;0 -->
<g id="edge25" class="edge">
<title>25&#45;&gt;0</title>
<path fill="none" stroke="grey" stroke-width="2" d="M701.16,-143.7C687.09,-125.07 670.03,-95.02 684,-72 698.08,-48.82 725.95,-35.32 749.01,-27.75"/>
<polygon fill="grey" stroke="grey" stroke-width="2" points="750.31,-31.01 758.87,-24.76 748.28,-24.31 750.31,-31.01"/>
</g>
</g>
</svg>
